# xmcd CD database file
#
# Track frame offsets:
#	150
#	11209
#	32085
#	45002
#	66687
#	85201
#	104521
#	129654
#	142389
#	154430
#	177251
#	189095
#	201691
#	215709
#	227809
#	240724
#
# Disc length: 3448 seconds
#
# Revision: 0
# Processed by: cddbd v1.5.2PL0 Copyright (c) Steve Scherf et al.
# Submitted via: ACXtractor (MTCDDB.DLL V2003.07.15)
#
DISCID=f60d7610
DTITLE=Letton McIvor internet etc - Best of
DYEAR=2013
DGENRE=Country
TTITLE0=Those Lazy Hazy Crazy days of Summer
TTITLE1=Some Days are Diamonds - Brian Letton
TTITLE2=Talk Back Trembling Lips - Brian Letton
TTITLE3=Sniper Billy Sing
TTITLE4=The Boy I Left Behind
TTITLE5=Kaki Shorts
TTITLE6=Under the Influence of Hero's
TTITLE7=Fair dinkum Australian Grandad
TTITLE8=Son of the Southern Cross
TTITLE9=Tent Show Fighters
TTITLE10=I Just Came to Smell the Flowers
TTITLE11=The Bells that Broke My Heart
TTITLE12=Fifty Golden Years
TTITLE13=Petal from a Faded Rose
TTITLE14=I Never See Maggie Alone
TTITLE15=I'll Accept the Rose
EXTD=ID3G:   2 YEAR: 2013
EXTT0=
EXTT1=
EXTT2=
EXTT3=
EXTT4=
EXTT5=
EXTT6=
EXTT7=
EXTT8=
EXTT9=
EXTT10=
EXTT11=
EXTT12=
EXTT13=
EXTT14=
EXTT15=
PLAYORDER=
